<?xml version="1.0" ?>
<svg xmlns="http://www.w3.org/2000/svg" width="800" height="600">
  <rect id="box1" x="50" y="50" width="100" height="30" fill="white" stroke="black"/>
  <text x="100.0" y="65.0" fill="black" font-size="14" font-family="Arial" text-anchor="middle" dominant-baseline="middle">1</text>
  <rect id="box2" x="50" y="82" width="100" height="30" fill="white" stroke="black"/>
  <text x="100.0" y="97.0" fill="black" font-size="14" font-family="Arial" text-anchor="middle" dominant-baseline="middle">2</text>
  <rect id="box3" x="50" y="114" width="100" height="30" fill="white" stroke="black"/>
  <text x="100.0" y="129.0" fill="black" font-size="14" font-family="Arial" text-anchor="middle" dominant-baseline="middle">3</text>
  <rect id="box4" x="50" y="146" width="100" height="30" fill="white" stroke="black"/>
  <text x="100.0" y="161.0" fill="black" font-size="14" font-family="Arial" text-anchor="middle" dominant-baseline="middle">4</text>
  <rect id="box5" x="50" y="178" width="100" height="30" fill="white" stroke="black"/>
  <text x="100.0" y="193.0" fill="black" font-size="14" font-family="Arial" text-anchor="middle" dominant-baseline="middle">5</text>
  <rect id="box6" x="50" y="210" width="100" height="30" fill="white" stroke="black"/>
  <text x="100.0" y="225.0" fill="black" font-size="14" font-family="Arial" text-anchor="middle" dominant-baseline="middle">6</text>
  <rect id="box7" x="50" y="242" width="100" height="30" fill="white" stroke="black"/>
  <text x="100.0" y="257.0" fill="black" font-size="14" font-family="Arial" text-anchor="middle" dominant-baseline="middle">7</text>
  <rect id="box8" x="50" y="274" width="100" height="30" fill="white" stroke="black"/>
  <text x="100.0" y="289.0" fill="black" font-size="14" font-family="Arial" text-anchor="middle" dominant-baseline="middle">8</text>
  <rect id="box9" x="50" y="306" width="100" height="30" fill="white" stroke="black"/>
  <text x="100.0" y="321.0" fill="black" font-size="14" font-family="Arial" text-anchor="middle" dominant-baseline="middle">9</text>
  <rect id="box10" x="50" y="338" width="100" height="30" fill="white" stroke="black"/>
  <text x="100.0" y="353.0" fill="black" font-size="14" font-family="Arial" text-anchor="middle" dominant-baseline="middle">10</text>
  <rect id="box11" x="200" y="50" width="100" height="30" fill="white" stroke="black"/>
  <text x="250.0" y="65.0" fill="black" font-size="14" font-family="Arial" text-anchor="middle" dominant-baseline="middle">11</text>
  <rect id="box12" x="200" y="82" width="100" height="30" fill="white" stroke="black"/>
  <text x="250.0" y="97.0" fill="black" font-size="14" font-family="Arial" text-anchor="middle" dominant-baseline="middle">12</text>
  <rect id="box13" x="200" y="114" width="100" height="30" fill="white" stroke="black"/>
  <text x="250.0" y="129.0" fill="black" font-size="14" font-family="Arial" text-anchor="middle" dominant-baseline="middle">13</text>
  <rect id="box14" x="200" y="146" width="100" height="30" fill="white" stroke="black"/>
  <text x="250.0" y="161.0" fill="black" font-size="14" font-family="Arial" text-anchor="middle" dominant-baseline="middle">14</text>
  <rect id="box15" x="200" y="178" width="100" height="30" fill="white" stroke="black"/>
  <text x="250.0" y="193.0" fill="black" font-size="14" font-family="Arial" text-anchor="middle" dominant-baseline="middle">15</text>
  <rect id="box16" x="200" y="210" width="100" height="30" fill="white" stroke="black"/>
  <text x="250.0" y="225.0" fill="black" font-size="14" font-family="Arial" text-anchor="middle" dominant-baseline="middle">16</text>
  <rect id="box17" x="200" y="242" width="100" height="30" fill="white" stroke="black"/>
  <text x="250.0" y="257.0" fill="black" font-size="14" font-family="Arial" text-anchor="middle" dominant-baseline="middle">17</text>
  <rect id="box18" x="200" y="274" width="100" height="30" fill="white" stroke="black"/>
  <text x="250.0" y="289.0" fill="black" font-size="14" font-family="Arial" text-anchor="middle" dominant-baseline="middle">18</text>
  <rect id="box19" x="200" y="306" width="100" height="30" fill="white" stroke="black"/>
  <text x="250.0" y="321.0" fill="black" font-size="14" font-family="Arial" text-anchor="middle" dominant-baseline="middle">19</text>
  <rect id="box20" x="200" y="338" width="100" height="30" fill="white" stroke="black"/>
  <text x="250.0" y="353.0" fill="black" font-size="14" font-family="Arial" text-anchor="middle" dominant-baseline="middle">20</text>
  <rect id="box21" x="350" y="50" width="100" height="30" fill="white" stroke="black"/>
  <text x="400.0" y="65.0" fill="black" font-size="14" font-family="Arial" text-anchor="middle" dominant-baseline="middle">21</text>
  <rect id="box22" x="350" y="82" width="100" height="30" fill="white" stroke="black"/>
  <text x="400.0" y="97.0" fill="black" font-size="14" font-family="Arial" text-anchor="middle" dominant-baseline="middle">22</text>
  <rect id="box23" x="350" y="114" width="100" height="30" fill="white" stroke="black"/>
  <text x="400.0" y="129.0" fill="black" font-size="14" font-family="Arial" text-anchor="middle" dominant-baseline="middle">23</text>
  <rect id="box24" x="350" y="146" width="100" height="30" fill="white" stroke="black"/>
  <text x="400.0" y="161.0" fill="black" font-size="14" font-family="Arial" text-anchor="middle" dominant-baseline="middle">24</text>
  <rect id="box25" x="350" y="178" width="100" height="30" fill="white" stroke="black"/>
  <text x="400.0" y="193.0" fill="black" font-size="14" font-family="Arial" text-anchor="middle" dominant-baseline="middle">25</text>
  <rect id="box26" x="350" y="210" width="100" height="30" fill="white" stroke="black"/>
  <text x="400.0" y="225.0" fill="black" font-size="14" font-family="Arial" text-anchor="middle" dominant-baseline="middle">26</text>
  <rect id="box27" x="350" y="242" width="100" height="30" fill="white" stroke="black"/>
  <text x="400.0" y="257.0" fill="black" font-size="14" font-family="Arial" text-anchor="middle" dominant-baseline="middle">27</text>
  <rect id="box28" x="350" y="274" width="100" height="30" fill="white" stroke="black"/>
  <text x="400.0" y="289.0" fill="black" font-size="14" font-family="Arial" text-anchor="middle" dominant-baseline="middle">28</text>
  <rect id="box29" x="350" y="306" width="100" height="30" fill="white" stroke="black"/>
  <text x="400.0" y="321.0" fill="black" font-size="14" font-family="Arial" text-anchor="middle" dominant-baseline="middle">29</text>
  <rect id="box30" x="350" y="338" width="100" height="30" fill="white" stroke="black"/>
  <text x="400.0" y="353.0" fill="black" font-size="14" font-family="Arial" text-anchor="middle" dominant-baseline="middle">30</text>
  <rect id="box31" x="500" y="50" width="100" height="30" fill="white" stroke="black"/>
  <text x="550.0" y="65.0" fill="black" font-size="14" font-family="Arial" text-anchor="middle" dominant-baseline="middle">31</text>
  <rect id="box32" x="500" y="82" width="100" height="30" fill="white" stroke="black"/>
  <text x="550.0" y="97.0" fill="black" font-size="14" font-family="Arial" text-anchor="middle" dominant-baseline="middle">32</text>
  <rect id="box33" x="500" y="114" width="100" height="30" fill="white" stroke="black"/>
  <text x="550.0" y="129.0" fill="black" font-size="14" font-family="Arial" text-anchor="middle" dominant-baseline="middle">33</text>
  <rect id="box34" x="500" y="146" width="100" height="30" fill="white" stroke="black"/>
  <text x="550.0" y="161.0" fill="black" font-size="14" font-family="Arial" text-anchor="middle" dominant-baseline="middle">34</text>
  <rect id="box35" x="500" y="178" width="100" height="30" fill="white" stroke="black"/>
  <text x="550.0" y="193.0" fill="black" font-size="14" font-family="Arial" text-anchor="middle" dominant-baseline="middle">35</text>
  <rect id="box36" x="500" y="210" width="100" height="30" fill="white" stroke="black"/>
  <text x="550.0" y="225.0" fill="black" font-size="14" font-family="Arial" text-anchor="middle" dominant-baseline="middle">36</text>
  <rect id="box37" x="500" y="242" width="100" height="30" fill="white" stroke="black"/>
  <text x="550.0" y="257.0" fill="black" font-size="14" font-family="Arial" text-anchor="middle" dominant-baseline="middle">37</text>
  <rect id="box38" x="500" y="274" width="100" height="30" fill="white" stroke="black"/>
  <text x="550.0" y="289.0" fill="black" font-size="14" font-family="Arial" text-anchor="middle" dominant-baseline="middle">38</text>
  <rect id="box39" x="500" y="306" width="100" height="30" fill="white" stroke="black"/>
  <text x="550.0" y="321.0" fill="black" font-size="14" font-family="Arial" text-anchor="middle" dominant-baseline="middle">39</text>
  <rect id="box40" x="500" y="338" width="100" height="30" fill="white" stroke="black"/>
  <text x="550.0" y="353.0" fill="black" font-size="14" font-family="Arial" text-anchor="middle" dominant-baseline="middle">40</text>
</svg>
